<svg width="10" height="10" viewBox="0 0 10 10" fill="none" xmlns="http://www.w3.org/2000/svg">
<g clip-path="url(#clip0_50_650)">
<path d="M9.74768 8.38849C9.74768 8.38849 9.08072 7.72176 8.67972 7.32098L7.32397 8.67673L8.39232 9.74461C8.87236 10.226 9.49522 9.91765 9.70747 9.70471C10.0305 9.38466 10.143 8.78506 9.74821 8.38902C9.74806 8.38887 9.74791 8.38872 9.74768 8.38849Z" fill="#242424"/>
<path d="M8.44524 5.5467C8.11939 5.22084 7.59105 5.22084 7.2652 5.5467L5.54981 7.26209C5.22396 7.58794 5.22396 8.11628 5.54981 8.44213C5.87566 8.76798 6.40392 8.76798 6.72977 8.44213L8.44524 6.72666C8.77109 6.40081 8.77109 5.87255 8.44524 5.5467Z" fill="#242424"/>
<path d="M0.252382 8.38849C0.252153 8.38872 0.252 8.38887 0.251848 8.38895C-0.142974 8.78506 -0.03044 9.38458 0.292589 9.70471C0.504838 9.91765 1.1277 10.226 1.60774 9.74454L2.67609 8.67665L1.32034 7.32098C0.919343 7.72176 0.252382 8.38849 0.252382 8.38849Z" fill="#242424"/>
<path d="M2.60239 4.58565L4.58565 2.60239L2.06909 0.0858306C2.01424 0.0308227 1.9397 0 1.86195 0H0.292969C0.131149 0 0 0.131149 0 0.292969V1.86195C0 1.9397 0.0308227 2.01424 0.0858306 2.06909L2.60239 4.58565Z" fill="#242424"/>
<path d="M9.99994 1.86195V0.292969C9.99994 0.131149 9.86879 0 9.70697 0H8.13798C8.06024 0 7.98578 0.0308227 7.93085 0.0858307L3.0166 5L4.99994 6.98334L9.91411 2.06917C9.96911 2.01424 9.99994 1.9397 9.99994 1.86195Z" fill="#242424"/>
<path d="M2.73473 5.5467C2.40888 5.22084 1.88054 5.22084 1.55469 5.5467C1.22884 5.87255 1.22884 6.40081 1.55469 6.72666L3.27008 8.44213C3.59594 8.76798 4.12427 8.76798 4.45012 8.44213C4.77597 8.11628 4.77597 7.58794 4.45012 7.26209L2.73473 5.5467Z" fill="#242424"/>
</g>
<defs>
<clipPath id="clip0_50_650">
<rect width="10" height="10" fill="white"/>
</clipPath>
</defs>
</svg>
